# xmcd
#
# Track frame offsets:
#	150
#	12307
#	25579
#	38118
#	52968
#	65130
#	78392
#	90976
#	104716
#	115860
#	130095
#	157202
#	170169
#	195546
#	206853
#	238207
#	252417
#	263681
#	281508
#	290438
#	306965
#	331179
#
# Disc length: 4569 seconds
#
# Revision: 0
# Processed by: cddbd v1.4PL0 Copyright (c) Steve Scherf et al.
# Submitted via: audiograbber 1.81.02
#
DISCID=4211d716
DTITLE=Various Artist - Blues - Godfathers and Sons
DYEAR=1900
DGENRE=
TTITLE0=Jimmy Rogers - Chicago Bound
TTITLE1=Muddy Waters - Mannish Boy
TTITLE2=Howlin' Wolf - Spoonful
TTITLE3=Buddy Guy - I Cry and Sing the Blues
TTITLE4=Jimmy Reed - Bright Lights, Big City
TTITLE5=Howlin' Wolf - Evil (Is Going On)
TTITLE6=Little Walter - Key to the Highway
TTITLE7=Koko Taylor - Wang Dang Doodle
TTITLE8=Howlin' Wolf - The Red Rooster
TTITLE9=Koko Taylor - I Got What It Takes
TTITLE10=Otis Rush - Walking the Backstreets and Crying (Live)
TTITLE11=Muddy Waters - (I'm Your) Hoochie Coochie Man
TTITLE12=Lonnie Brooks - Feel Good Doin' Bad (Live)
TTITLE13=Bo Diddley - Diddley Daddy
TTITLE14=Magic Slim and The Teardrops - Talk to Me Baby (I Can't Hold Out) (Live)
TTITLE15=The Paul Butterfield Blues Band - Born in Chicago
TTITLE16=The Paul Butterfield Blues Band - Shake Your Money Maker
TTITLE17=Bob Dylan - Maggie's Farm
TTITLE18=Public Enemy - Show 'Em Whatcha Got
TTITLE19=Common - Dooinit
TTITLE20=The ElectriK Mud Kats - Mannish Boy
TTITLE21=Etta James - I'd Rather Go Blind
EXTD=
EXTT0=
EXTT1=
EXTT2=
EXTT3=
EXTT4=
EXTT5=
EXTT6=
EXTT7=
EXTT8=
EXTT9=
EXTT10=
EXTT11=
EXTT12=
EXTT13=
EXTT14=
EXTT15=
EXTT16=
EXTT17=
EXTT18=
EXTT19=
EXTT20=
EXTT21=
PLAYORDER=
